<?xml version="1.0" encoding="UTF-8" standalone="no"?>
<!-- Created with Inkscape (http://www.inkscape.org/) -->

<svg
   xmlns:dc="http://purl.org/dc/elements/1.1/"
   xmlns:cc="http://creativecommons.org/ns#"
   xmlns:rdf="http://www.w3.org/1999/02/22-rdf-syntax-ns#"
   xmlns:svg="http://www.w3.org/2000/svg"
   xmlns="http://www.w3.org/2000/svg"
   version="1.1"
   width="1052.3622"
   height="744.09448"
   id="svg2"
   style="display:inline">
  <defs
     id="defs4" />
  <metadata
     id="metadata7">
    <rdf:RDF>
      <cc:Work
         rdf:about="">
        <dc:format>image/svg+xml</dc:format>
        <dc:type
           rdf:resource="http://purl.org/dc/dcmitype/StillImage" />
        <dc:title></dc:title>
      </cc:Work>
    </rdf:RDF>
  </metadata>
  <g
     id="g3000">
    <path
       d="m 561.36632,321.00749 -0.21707,-4.23304 -0.43416,-12.59059 1.47371,-3.2618 5.58135,-0.75415 6.02395,0.47486 1.7909,3.64964 -0.65124,13.89305 -0.47637,3.7399 -0.93465,2.33831 -0.96182,1.93879 0.0935,1.8601"
       id="path3825"
       style="fill:#ffffff;fill-opacity:1;stroke:#000000;stroke-width:1px;stroke-linecap:butt;stroke-linejoin:miter;stroke-opacity:1;display:inline" />
    <path
       d="m 474.36848,321.00749 0.21707,-4.23304 0.43416,-12.59059 -1.47371,-3.2618 -5.58135,-0.75415 -6.02395,0.47486 -1.7909,3.64964 0.65124,13.89305 0.47637,3.7399 0.93465,2.33831 0.96182,1.93879 -0.0935,1.8601"
       id="path3825-0"
       style="fill:#ffffff;fill-opacity:1;stroke:#000000;stroke-width:1px;stroke-linecap:butt;stroke-linejoin:miter;stroke-opacity:1;display:inline" />
    <path
       d="m 502.7896,295.57321 -1.68033,7.63725 -2.69436,2.87737 -68.18074,42.09927 -73.41216,46.53907 -6.83102,10.89844 -1.70277,4.04317 0.96929,1.6057 67.19351,-27.52743 37.70914,-14.21265 24.99075,-7.95603 14.33864,-1.12487 9.60705,-0.10312"
       id="path3823-3"
       style="fill:#ffffff;fill-opacity:1;stroke:#000000;stroke-width:1px;stroke-linecap:butt;stroke-linejoin:miter;stroke-opacity:1;display:inline" />
    <path
       d="m 526.49828,485.75728 41.29098,27.01566 1.47749,2.25442 0.51805,3.40361 -7e-5,7.5428 -47.2774,-14.12182"
       id="path3837"
       style="fill:#ffffff;fill-opacity:1;stroke:#000000;stroke-width:1px;stroke-linecap:butt;stroke-linejoin:miter;stroke-opacity:1;display:inline" />
    <path
       d="m 509.23652,485.75728 -41.29098,27.01566 -1.47749,2.25442 -0.51805,3.40361 7e-5,7.5428 47.2774,-14.12182"
       id="path3837-9"
       style="fill:#ffffff;fill-opacity:1;stroke:#000000;stroke-width:1px;stroke-linecap:butt;stroke-linejoin:miter;stroke-opacity:1;display:inline" />
    <path
       d="m 532.9452,295.57321 1.68033,7.63725 2.69436,2.87737 68.18074,42.09927 73.41216,46.53907 6.83102,10.89844 1.70277,4.04317 -0.96929,1.6057 -67.19351,-27.52743 -37.70914,-14.21265 -24.99075,-7.95603 -14.33865,-1.12487 -9.60704,-0.10312"
       id="path3823"
       style="fill:#ffffff;fill-opacity:1;stroke:#000000;stroke-width:1px;stroke-linecap:butt;stroke-linejoin:miter;stroke-opacity:1;display:inline" />
    <path
       d="m 516.29743,528.89023 -5.96896,-35.66608 -7.23187,-57.04673 -0.42908,-101.96115 0.12208,-96.35832 0.4281,-9.80538 2.1922,-15.36553 4.65304,-15.81223 3.46706,-6.47569 4.34355,-4.66982 4.33995,4.67645 3.46422,6.47899 4.64929,15.8117 2.19047,15.36029 0.42772,9.80122 0.12208,96.35832 -0.42908,101.96115 -7.23187,57.04673 -5.96896,35.66608 -1.5157,1.89944 -1.62424,-1.89944 0,0"
       id="path4295"
       style="fill:#ffffff;fill-opacity:1;stroke:#000000;stroke-width:1px;stroke-linecap:butt;stroke-linejoin:miter;stroke-opacity:1;display:inline" />
    <path
       d="m 530.64273,213.60525 -2.30247,1.22799 0,4.91194 3.68395,1.68847"
       id="path3915"
       style="fill:none;stroke:#000000;stroke-width:1px;stroke-linecap:butt;stroke-linejoin:miter;stroke-opacity:1;display:inline" />
    <path
       d="m 518.66988,194.2645 3.37696,1.91873 -0.2302,2.07223 -3.06997,-2.03386 -0.0768,-1.9571"
       id="path3917"
       style="fill:#000000;fill-opacity:1;stroke:#000000;stroke-width:1px;stroke-linecap:butt;stroke-linejoin:miter;stroke-opacity:1;display:inline" />
    <path
       d="m 532.9452,379.38314 -1.99548,-1.07449 0.1535,-4.60494 1.84198,-0.46049"
       id="path3911"
       style="fill:none;stroke:#000000;stroke-width:1px;stroke-linecap:butt;stroke-linejoin:miter;stroke-opacity:1;display:inline" />
    <path
       d="m 532.79169,282.98637 -2.14896,-2.45597 0.15349,-5.67943 1.84198,-0.76749"
       id="path3913"
       style="fill:none;stroke:#000000;stroke-width:1px;stroke-linecap:butt;stroke-linejoin:miter;stroke-opacity:1;display:inline" />
    <path
       d="m 523.73532,198.25546 1.84197,3.91419 0.0768,2.22573 -2.14897,-4.29795 0.2302,-1.84197"
       id="path3951"
       style="fill:#000000;fill-opacity:1;stroke:#000000;stroke-width:1px;stroke-linecap:butt;stroke-linejoin:miter;stroke-opacity:1;display:inline" />
    <path
       d="m 505.09207,213.60525 2.30247,1.22799 0,4.91194 -3.68395,1.68847"
       id="path3915-7"
       style="fill:none;stroke:#000000;stroke-width:1px;stroke-linecap:butt;stroke-linejoin:miter;stroke-opacity:1;display:inline" />
    <path
       d="m 517.06492,194.2645 -3.37696,1.91873 0.2302,2.07223 3.10834,-2.11061 0.0384,-1.88035"
       id="path3917-6"
       style="fill:#000000;fill-opacity:1;stroke:#000000;stroke-width:1px;stroke-linecap:butt;stroke-linejoin:miter;stroke-opacity:1;display:inline" />
    <path
       d="m 515.03623,490.68764 0.75479,-26.90461 2.06018,-11.14425 2.06017,11.14425 0.75478,26.90461 -0.75478,26.90461 -2.06017,11.14426 -2.06018,-11.14426 -0.75479,-26.90461 0,0"
       id="path3843-7"
       style="fill:none;stroke:#000000;stroke-width:1.03708589;stroke-linecap:round;stroke-linejoin:miter;stroke-miterlimit:4;stroke-opacity:1;stroke-dashoffset:3.2;display:inline" />
    <path
       d="m 502.7896,379.38314 1.99548,-1.07449 -0.1535,-4.60494 -1.84198,-0.46049"
       id="path3911-7"
       style="fill:none;stroke:#000000;stroke-width:1px;stroke-linecap:butt;stroke-linejoin:miter;stroke-opacity:1;display:inline" />
    <path
       d="m 502.94311,282.98637 2.14896,-2.45597 -0.15349,-5.67943 -1.84198,-0.76749"
       id="path3913-5"
       style="fill:none;stroke:#000000;stroke-width:1px;stroke-linecap:butt;stroke-linejoin:miter;stroke-opacity:1;display:inline" />
    <path
       d="m 511.99948,198.25546 -1.84197,3.91419 -0.0768,2.22573 2.14897,-4.29795 -0.2302,-1.84197"
       id="path3951-0"
       style="fill:#000000;fill-opacity:1;stroke:#000000;stroke-width:1px;stroke-linecap:butt;stroke-linejoin:miter;stroke-opacity:1;display:inline" />
  </g>
</svg>
