<?xml version="1.0" encoding="UTF-8" standalone="no"?>
<!-- Created with Inkscape (http://www.inkscape.org/) -->

<svg
   xmlns:dc="http://purl.org/dc/elements/1.1/"
   xmlns:cc="http://creativecommons.org/ns#"
   xmlns:rdf="http://www.w3.org/1999/02/22-rdf-syntax-ns#"
   xmlns:svg="http://www.w3.org/2000/svg"
   xmlns="http://www.w3.org/2000/svg"
   xmlns:sodipodi="http://sodipodi.sourceforge.net/DTD/sodipodi-0.dtd"
   xmlns:inkscape="http://www.inkscape.org/namespaces/inkscape"
   version="1.1"
   width="1052.3622"
   height="744.09448"
   id="svg2"
   style="display:inline"
   inkscape:version="0.48.1 r9760"
   sodipodi:docname="a330.svg">
  <sodipodi:namedview
     pagecolor="#ffffff"
     bordercolor="#666666"
     borderopacity="1"
     objecttolerance="10"
     gridtolerance="10"
     guidetolerance="10"
     inkscape:pageopacity="0"
     inkscape:pageshadow="2"
     inkscape:window-width="958"
     inkscape:window-height="1198"
     id="namedview82"
     showgrid="false"
     inkscape:zoom="1.1278632"
     inkscape:cx="526.18109"
     inkscape:cy="372.04724"
     inkscape:window-x="0"
     inkscape:window-y="0"
     inkscape:window-maximized="0"
     inkscape:current-layer="svg2" />
  <defs
     id="defs4" />
  <metadata
     id="metadata7">
    <rdf:RDF>
      <cc:Work
         rdf:about="">
        <dc:format>image/svg+xml</dc:format>
        <dc:type
           rdf:resource="http://purl.org/dc/dcmitype/StillImage" />
        <dc:title></dc:title>
      </cc:Work>
    </rdf:RDF>
  </metadata>
  <g
     id="layer2"
     style="display:inline">
    <path
       d="m 526.49828,485.75728 41.29098,27.01566 1.47749,2.25442 0.51805,3.40361 -7e-5,7.5428 -47.2774,-14.12182"
       id="path3837"
       style="fill:#ffffff;fill-opacity:1;stroke:#000000;stroke-width:1px;stroke-linecap:butt;stroke-linejoin:miter;stroke-opacity:1;display:inline" />
    <path
       d="m 509.23652,485.75728 -41.29098,27.01566 -1.47749,2.25442 -0.51805,3.40361 7e-5,7.5428 47.2774,-14.12182"
       id="path3837-9"
       style="fill:#ffffff;fill-opacity:1;stroke:#000000;stroke-width:1px;stroke-linecap:butt;stroke-linejoin:miter;stroke-opacity:1;display:inline" />
    <path
       d="m 561.36632,321.00749 -0.21707,-4.23304 -0.43416,-12.59059 1.47371,-3.2618 5.58135,-0.75415 6.02395,0.47486 1.7909,3.64964 -0.65124,13.89305 -0.47637,3.7399 -0.93465,2.33831 -0.96182,1.93879 0.0935,1.8601"
       id="path3825"
       style="fill:#ffffff;fill-opacity:1;stroke:#000000;stroke-width:1px;stroke-linecap:butt;stroke-linejoin:miter;stroke-opacity:1;display:inline" />
    <path
       d="m 474.36848,321.00749 0.21707,-4.23304 0.43416,-12.59059 -1.47371,-3.2618 -5.58135,-0.75415 -6.02395,0.47486 -1.7909,3.64964 0.65124,13.89305 0.47637,3.7399 0.93465,2.33831 0.96182,1.93879 -0.0935,1.8601"
       id="path3825-0"
       style="fill:#ffffff;fill-opacity:1;stroke:#000000;stroke-width:1px;stroke-linecap:butt;stroke-linejoin:miter;stroke-opacity:1;display:inline" />
    <path
       d="m 532.9452,295.57321 1.68033,7.63725 2.69436,2.87737 68.18074,42.09927 73.41216,46.53907 6.83102,10.89844 1.70277,4.04317 -0.96929,1.6057 -67.19351,-27.52743 -37.70914,-14.21265 -24.99075,-7.95603 -14.33865,-1.12487 -9.60704,-0.10312"
       id="path3823"
       style="fill:#ffffff;fill-opacity:1;stroke:#000000;stroke-width:1px;stroke-linecap:butt;stroke-linejoin:miter;stroke-opacity:1;display:inline" />
    <path
       d="m 502.7896,295.57321 -1.68033,7.63725 -2.69436,2.87737 -68.18074,42.09927 -73.41216,46.53907 -6.83102,10.89844 -1.70277,4.04317 0.96929,1.6057 67.19351,-27.52743 37.70914,-14.21265 24.99075,-7.95603 14.33864,-1.12487 9.60705,-0.10312"
       id="path3823-3"
       style="fill:#ffffff;fill-opacity:1;stroke:#000000;stroke-width:1px;stroke-linecap:butt;stroke-linejoin:miter;stroke-opacity:1;display:inline" />
    <path
       d="m 516.29743,528.89023 -5.96896,-35.66608 -7.23187,-57.04673 -0.42908,-101.96115 0.12208,-96.35832 0.4281,-9.80538 2.1922,-15.36553 4.65304,-15.81223 3.46706,-6.47569 4.34355,-4.66982 4.33995,4.67645 3.46422,6.47899 4.64929,15.8117 2.19047,15.36029 0.42772,9.80122 0.12208,96.35832 -0.42908,101.96115 -7.23187,57.04673 -5.96896,35.66608 -1.5157,1.89944 -1.62424,-1.89944 0,0"
       id="path4295"
       style="fill:#ffffff;fill-opacity:1;stroke:#000000;stroke-width:1px;stroke-linecap:butt;stroke-linejoin:miter;stroke-opacity:1;display:inline" />
    <path
       d="m 530.64273,213.60525 -2.30247,1.22799 0,4.91194 3.68395,1.68847"
       id="path3915"
       style="fill:none;stroke:#000000;stroke-width:1px;stroke-linecap:butt;stroke-linejoin:miter;stroke-opacity:1;display:inline" />
    <path
       d="m 518.66988,194.2645 3.37696,1.91873 -0.2302,2.07223 -3.06997,-2.03386 -0.0768,-1.9571"
       id="path3917"
       style="fill:#000000;fill-opacity:1;stroke:#000000;stroke-width:1px;stroke-linecap:butt;stroke-linejoin:miter;stroke-opacity:1;display:inline" />
    <path
       d="m 524.04231,502.33507 20.28093,8.28889 20.39605,9.20989 0.1535,4.60494"
       id="path3839"
       style="fill:none;stroke:#000000;stroke-width:1px;stroke-linecap:butt;stroke-linejoin:miter;stroke-opacity:1;display:inline" />
    <path
       d="m 526.19128,488.21325 38.68151,25.78767 1.07448,-1.99547"
       id="path3841"
       style="fill:none;stroke:#000000;stroke-width:1px;stroke-linecap:butt;stroke-linejoin:miter;stroke-opacity:1;display:inline" />
    <path
       d="m 529.72174,463.50006 -1.99548,-1.99547 0.614,-6.13992 2.30247,0.1535"
       id="path3909"
       style="fill:none;stroke:#000000;stroke-width:1px;stroke-linecap:butt;stroke-linejoin:miter;stroke-opacity:1;display:inline" />
    <path
       d="m 532.9452,379.38314 -1.99548,-1.07449 0.1535,-4.60494 1.84198,-0.46049"
       id="path3911"
       style="fill:none;stroke:#000000;stroke-width:1px;stroke-linecap:butt;stroke-linejoin:miter;stroke-opacity:1;display:inline" />
    <path
       d="m 532.79169,282.98637 -2.14896,-2.45597 0.15349,-5.67943 1.84198,-0.76749"
       id="path3913"
       style="fill:none;stroke:#000000;stroke-width:1px;stroke-linecap:butt;stroke-linejoin:miter;stroke-opacity:1;display:inline" />
    <path
       d="m 523.73532,198.25546 1.84197,3.91419 0.0768,2.22573 -2.14897,-4.29795 0.2302,-1.84197"
       id="path3951"
       style="fill:#000000;fill-opacity:1;stroke:#000000;stroke-width:1px;stroke-linecap:butt;stroke-linejoin:miter;stroke-opacity:1;display:inline" />
    <path
       d="m 556.4304,361.27037 0.64586,5.53661 1.34962,2.75229 1.61172,-3.56884 0.23025,-3.33858"
       id="path3954"
       style="fill:none;stroke:#000000;stroke-width:1px;stroke-linecap:butt;stroke-linejoin:miter;stroke-opacity:1;display:inline" />
    <path
       d="m 575.61765,367.56379 1.22799,7.6749 1.33237,-2.10666 0.5096,-4.64725"
       id="path3956"
       style="fill:none;stroke:#000000;stroke-width:1px;stroke-linecap:butt;stroke-linejoin:miter;stroke-opacity:1;display:inline" />
    <path
       d="m 594.49791,374.4712 0.41592,4.4037 1.11906,2.50371 1.25337,-2.23552 0.43511,-3.4439"
       id="path3958"
       style="fill:none;stroke:#000000;stroke-width:1px;stroke-linecap:butt;stroke-linejoin:miter;stroke-opacity:1;display:inline" />
    <path
       d="m 613.07117,381.37861 0.92099,5.52593 1.99547,-4.45144"
       id="path3960"
       style="fill:none;stroke:#000000;stroke-width:1px;stroke-linecap:butt;stroke-linejoin:miter;stroke-opacity:1;display:inline" />
    <path
       d="m 624.73703,385.98355 0.57034,4.4603 1.27163,1.98662 1.27067,-1.79295 0.57131,-3.11899"
       id="path3962"
       style="fill:none;stroke:#000000;stroke-width:1px;stroke-linecap:butt;stroke-linejoin:miter;stroke-opacity:1;display:inline" />
    <path
       d="m 533.09869,337.17118 92.55932,38.52801 -0.30699,10.43786"
       id="path3846"
       style="fill:none;stroke:#000000;stroke-width:1px;stroke-linecap:butt;stroke-linejoin:miter;stroke-opacity:1;display:inline" />
    <path
       d="m 628.57448,387.05804 -0.15351,-7.8284 46.04942,23.02471 0.1535,3.83745"
       id="path3848"
       style="fill:none;stroke:#000000;stroke-width:1px;stroke-linecap:butt;stroke-linejoin:miter;stroke-opacity:1;display:inline" />
    <path
       d="m 680.61031,397.64941 -0.30699,10.59136"
       id="path3850"
       style="fill:none;stroke:#000000;stroke-width:1px;stroke-linecap:butt;stroke-linejoin:miter;stroke-opacity:1;display:inline" />
    <path
       d="m 533.25219,356.20493 18.99249,0.79741 15.85157,1.50507 32.02249,11.86105 25.23228,10.08916"
       id="path3852"
       style="fill:none;stroke:#000000;stroke-width:1px;stroke-linecap:butt;stroke-linejoin:miter;stroke-opacity:1;display:inline" />
    <path
       d="m 567.94275,364.95433 0,-11.05187 43.13295,15.9638"
       id="path3854"
       style="fill:none;stroke:#000000;stroke-width:1px;stroke-linecap:butt;stroke-linejoin:miter;stroke-opacity:1;display:inline" />
    <path
       d="m 580.52959,358.6609 -0.1535,3.68396"
       id="path3856"
       style="fill:none;stroke:#000000;stroke-width:1px;stroke-linecap:butt;stroke-linejoin:miter;stroke-opacity:1;display:inline" />
    <path
       d="m 591.42795,362.49835 -0.76749,4.29795"
       id="path3858"
       style="fill:none;stroke:#000000;stroke-width:1px;stroke-linecap:butt;stroke-linejoin:miter;stroke-opacity:1;display:inline" />
    <path
       d="m 601.55882,366.33581 0.1535,4.45144"
       id="path3860"
       style="fill:none;stroke:#000000;stroke-width:1px;stroke-linecap:butt;stroke-linejoin:miter;stroke-opacity:1;display:inline" />
    <path
       d="m 614.29916,371.24774 -1.99548,3.68396"
       id="path3862"
       style="fill:none;stroke:#000000;stroke-width:1px;stroke-linecap:butt;stroke-linejoin:miter;stroke-opacity:1;display:inline" />
    <path
       d="m 650.0642,390.2815 -0.15349,5.21893"
       id="path3864"
       style="fill:none;stroke:#000000;stroke-width:1px;stroke-linecap:butt;stroke-linejoin:miter;stroke-opacity:1;display:inline" />
    <path
       d="m 537.08964,306.16457 1.38148,5.67943 12.74879,8.60837 12.88539,7.04843 1.84197,-3.06996"
       id="path3866"
       style="fill:none;stroke:#000000;stroke-width:1px;stroke-linecap:butt;stroke-linejoin:miter;stroke-opacity:1;display:inline" />
    <path
       d="m 568.71024,325.65882 0.24943,4.33632 1.28555,1.8036 105.60665,63.85519 3.22346,-0.46049"
       id="path3868"
       style="fill:none;stroke:#000000;stroke-width:1px;stroke-linecap:butt;stroke-linejoin:miter;stroke-opacity:1;display:inline" />
    <path
       d="m 590.19997,338.55266 -2.45597,3.83745"
       id="path3870"
       style="fill:none;stroke:#000000;stroke-width:1px;stroke-linecap:butt;stroke-linejoin:miter;stroke-opacity:1;display:inline" />
    <path
       d="m 607.54524,349.60452 -1.99547,3.37696"
       id="path3872"
       style="fill:none;stroke:#000000;stroke-width:1px;stroke-linecap:butt;stroke-linejoin:miter;stroke-opacity:1;display:inline" />
    <path
       d="m 625.50451,360.65638 -1.84197,3.37695 0,0"
       id="path3874"
       style="fill:none;stroke:#000000;stroke-width:1px;stroke-linecap:butt;stroke-linejoin:miter;stroke-opacity:1;display:inline" />
    <path
       d="m 644.07778,372.32223 -1.68848,2.76296"
       id="path3876"
       style="fill:none;stroke:#000000;stroke-width:1px;stroke-linecap:butt;stroke-linejoin:miter;stroke-opacity:1;display:inline" />
    <path
       d="m 534.78717,337.78517 4.83519,2.39841 3.32419,2.32885 1.511,2.48714 0.1535,11.66586"
       id="path3878"
       style="fill:none;stroke:#000000;stroke-width:1px;stroke-linecap:butt;stroke-linejoin:miter;stroke-opacity:1;display:inline" />
    <path
       d="m 544.61105,356.66543 1.99547,-3.68395 12.74034,0.30699 1.07449,1.38148 0,2.91647"
       id="path3880"
       style="fill:none;stroke:#000000;stroke-width:1px;stroke-linecap:butt;stroke-linejoin:miter;stroke-opacity:1;display:inline" />
    <path
       d="m 561.14924,316.66591 14.11014,0"
       id="path3827"
       style="fill:none;stroke:#000000;stroke-width:1px;stroke-linecap:butt;stroke-linejoin:miter;stroke-opacity:1;display:inline" />
    <path
       d="m 560.28093,306.24612 15.19553,0"
       id="path3829"
       style="fill:none;stroke:#000000;stroke-width:1px;stroke-linecap:butt;stroke-linejoin:miter;stroke-opacity:1;display:inline" />
    <path
       d="m 566.25427,324.12384 0.11336,-12.36495 0.44588,-3.96321 1.28273,-1.4776 1.14468,3.10217 0.42711,6.80576 -0.0368,9.8933"
       id="path3991"
       style="fill:none;stroke:#000000;stroke-width:1px;stroke-linecap:butt;stroke-linejoin:miter;stroke-opacity:1" />
    <path
       d="m 505.09207,213.60525 2.30247,1.22799 0,4.91194 -3.68395,1.68847"
       id="path3915-7"
       style="fill:none;stroke:#000000;stroke-width:1px;stroke-linecap:butt;stroke-linejoin:miter;stroke-opacity:1;display:inline" />
    <path
       d="m 517.06492,194.2645 -3.37696,1.91873 0.2302,2.07223 3.10834,-2.11061 0.0384,-1.88035"
       id="path3917-6"
       style="fill:#000000;fill-opacity:1;stroke:#000000;stroke-width:1px;stroke-linecap:butt;stroke-linejoin:miter;stroke-opacity:1;display:inline" />
    <path
       d="m 511.69249,502.33507 -20.28093,8.28889 -20.39605,9.20989 -0.1535,4.60494"
       id="path3839-2"
       style="fill:none;stroke:#000000;stroke-width:1px;stroke-linecap:butt;stroke-linejoin:miter;stroke-opacity:1;display:inline" />
    <path
       d="m 509.54352,488.21325 -38.68151,25.78767 -1.07448,-1.99547"
       id="path3841-2"
       style="fill:none;stroke:#000000;stroke-width:1px;stroke-linecap:butt;stroke-linejoin:miter;stroke-opacity:1;display:inline" />
    <path
       d="m 515.03623,490.68764 0.75479,-26.90461 2.06018,-11.14425 2.06017,11.14425 0.75478,26.90461 -0.75478,26.90461 -2.06017,11.14426 -2.06018,-11.14426 -0.75479,-26.90461 0,0"
       id="path3843-7"
       style="fill:none;stroke:#000000;stroke-width:1.03708589;stroke-linecap:round;stroke-linejoin:miter;stroke-miterlimit:4;stroke-opacity:1;stroke-dashoffset:3.2;display:inline" />
    <path
       d="m 506.01306,463.50006 1.99548,-1.99547 -0.614,-6.13992 -2.30247,0.1535"
       id="path3909-1"
       style="fill:none;stroke:#000000;stroke-width:1px;stroke-linecap:butt;stroke-linejoin:miter;stroke-opacity:1;display:inline" />
    <path
       d="m 502.7896,379.38314 1.99548,-1.07449 -0.1535,-4.60494 -1.84198,-0.46049"
       id="path3911-7"
       style="fill:none;stroke:#000000;stroke-width:1px;stroke-linecap:butt;stroke-linejoin:miter;stroke-opacity:1;display:inline" />
    <path
       d="m 502.94311,282.98637 2.14896,-2.45597 -0.15349,-5.67943 -1.84198,-0.76749"
       id="path3913-5"
       style="fill:none;stroke:#000000;stroke-width:1px;stroke-linecap:butt;stroke-linejoin:miter;stroke-opacity:1;display:inline" />
    <path
       d="m 511.99948,198.25546 -1.84197,3.91419 -0.0768,2.22573 2.14897,-4.29795 -0.2302,-1.84197"
       id="path3951-0"
       style="fill:#000000;fill-opacity:1;stroke:#000000;stroke-width:1px;stroke-linecap:butt;stroke-linejoin:miter;stroke-opacity:1;display:inline" />
    <path
       d="m 479.3044,361.27037 -0.64586,5.53661 -1.34962,2.75229 -1.61172,-3.56884 -0.23025,-3.33858"
       id="path3954-8"
       style="fill:none;stroke:#000000;stroke-width:1px;stroke-linecap:butt;stroke-linejoin:miter;stroke-opacity:1;display:inline" />
    <path
       d="m 460.11715,367.56379 -1.22799,7.6749 -1.33238,-2.10666 -0.50959,-4.64725"
       id="path3956-2"
       style="fill:none;stroke:#000000;stroke-width:1px;stroke-linecap:butt;stroke-linejoin:miter;stroke-opacity:1;display:inline" />
    <path
       d="m 441.23689,374.4712 -0.41592,4.4037 -1.11906,2.50371 -1.25337,-2.23552 -0.43511,-3.4439"
       id="path3958-0"
       style="fill:none;stroke:#000000;stroke-width:1px;stroke-linecap:butt;stroke-linejoin:miter;stroke-opacity:1;display:inline" />
    <path
       d="m 422.66363,381.37861 -0.92099,5.52593 -1.99547,-4.45144"
       id="path3960-4"
       style="fill:none;stroke:#000000;stroke-width:1px;stroke-linecap:butt;stroke-linejoin:miter;stroke-opacity:1;display:inline" />
    <path
       d="m 410.99777,385.98355 -0.57034,4.4603 -1.27163,1.98662 -1.27067,-1.79295 -0.57131,-3.11899"
       id="path3962-0"
       style="fill:none;stroke:#000000;stroke-width:1px;stroke-linecap:butt;stroke-linejoin:miter;stroke-opacity:1;display:inline" />
    <path
       d="m 502.63611,337.17118 -92.55932,38.52801 0.30699,10.43786"
       id="path3846-2"
       style="fill:none;stroke:#000000;stroke-width:1px;stroke-linecap:butt;stroke-linejoin:miter;stroke-opacity:1;display:inline" />
    <path
       d="m 407.16032,387.05804 0.15351,-7.8284 -46.04942,23.02471 -0.1535,3.83745"
       id="path3848-9"
       style="fill:none;stroke:#000000;stroke-width:1px;stroke-linecap:butt;stroke-linejoin:miter;stroke-opacity:1;display:inline" />
    <path
       d="m 355.12449,397.64941 0.30699,10.59136"
       id="path3850-0"
       style="fill:none;stroke:#000000;stroke-width:1px;stroke-linecap:butt;stroke-linejoin:miter;stroke-opacity:1;display:inline" />
    <path
       d="m 502.48261,356.20493 -18.99249,0.79741 -15.85157,1.50507 -32.02249,11.86105 -25.23228,10.08916"
       id="path3852-0"
       style="fill:none;stroke:#000000;stroke-width:1px;stroke-linecap:butt;stroke-linejoin:miter;stroke-opacity:1;display:inline" />
    <path
       d="m 467.79205,364.95433 0,-11.05187 -43.13295,15.9638"
       id="path3854-6"
       style="fill:none;stroke:#000000;stroke-width:1px;stroke-linecap:butt;stroke-linejoin:miter;stroke-opacity:1;display:inline" />
    <path
       d="m 455.20521,358.6609 0.1535,3.68396"
       id="path3856-4"
       style="fill:none;stroke:#000000;stroke-width:1px;stroke-linecap:butt;stroke-linejoin:miter;stroke-opacity:1;display:inline" />
    <path
       d="m 444.30685,362.49835 0.76749,4.29795"
       id="path3858-7"
       style="fill:none;stroke:#000000;stroke-width:1px;stroke-linecap:butt;stroke-linejoin:miter;stroke-opacity:1;display:inline" />
    <path
       d="m 434.17598,366.33581 -0.1535,4.45144"
       id="path3860-2"
       style="fill:none;stroke:#000000;stroke-width:1px;stroke-linecap:butt;stroke-linejoin:miter;stroke-opacity:1;display:inline" />
    <path
       d="m 421.43564,371.24774 1.99548,3.68396"
       id="path3862-6"
       style="fill:none;stroke:#000000;stroke-width:1px;stroke-linecap:butt;stroke-linejoin:miter;stroke-opacity:1;display:inline" />
    <path
       d="m 385.6706,390.2815 0.15349,5.21893"
       id="path3864-6"
       style="fill:none;stroke:#000000;stroke-width:1px;stroke-linecap:butt;stroke-linejoin:miter;stroke-opacity:1;display:inline" />
    <path
       d="m 498.64516,306.16457 -1.38148,5.67943 -12.74879,8.60837 -12.88539,7.04843 -1.84197,-3.06996"
       id="path3866-6"
       style="fill:none;stroke:#000000;stroke-width:1px;stroke-linecap:butt;stroke-linejoin:miter;stroke-opacity:1;display:inline" />
    <path
       d="m 467.02456,325.65882 -0.24943,4.33632 -1.28555,1.8036 -105.60665,63.85519 -3.22346,-0.46049"
       id="path3868-8"
       style="fill:none;stroke:#000000;stroke-width:1px;stroke-linecap:butt;stroke-linejoin:miter;stroke-opacity:1;display:inline" />
    <path
       d="m 445.53483,338.55266 2.45597,3.83745"
       id="path3870-4"
       style="fill:none;stroke:#000000;stroke-width:1px;stroke-linecap:butt;stroke-linejoin:miter;stroke-opacity:1;display:inline" />
    <path
       d="m 428.18956,349.60452 1.99547,3.37696"
       id="path3872-7"
       style="fill:none;stroke:#000000;stroke-width:1px;stroke-linecap:butt;stroke-linejoin:miter;stroke-opacity:1;display:inline" />
    <path
       d="m 410.23029,360.65638 1.84197,3.37695 0,0"
       id="path3874-1"
       style="fill:none;stroke:#000000;stroke-width:1px;stroke-linecap:butt;stroke-linejoin:miter;stroke-opacity:1;display:inline" />
    <path
       d="m 391.65702,372.32223 1.68848,2.76296"
       id="path3876-1"
       style="fill:none;stroke:#000000;stroke-width:1px;stroke-linecap:butt;stroke-linejoin:miter;stroke-opacity:1;display:inline" />
    <path
       d="m 500.94763,337.78517 -4.83519,2.39841 -3.32419,2.32885 -1.511,2.48714 -0.1535,11.66586"
       id="path3878-3"
       style="fill:none;stroke:#000000;stroke-width:1px;stroke-linecap:butt;stroke-linejoin:miter;stroke-opacity:1;display:inline" />
    <path
       d="m 491.12375,356.66543 -1.99547,-3.68395 -12.74034,0.30699 -1.07449,1.38148 0,2.91647"
       id="path3880-5"
       style="fill:none;stroke:#000000;stroke-width:1px;stroke-linecap:butt;stroke-linejoin:miter;stroke-opacity:1;display:inline" />
    <path
       d="m 474.58556,316.66591 -14.11014,0"
       id="path3827-5"
       style="fill:none;stroke:#000000;stroke-width:1px;stroke-linecap:butt;stroke-linejoin:miter;stroke-opacity:1;display:inline" />
    <path
       d="m 475.45387,306.24612 -15.19553,0"
       id="path3829-5"
       style="fill:none;stroke:#000000;stroke-width:1px;stroke-linecap:butt;stroke-linejoin:miter;stroke-opacity:1;display:inline" />
    <path
       d="m 469.48053,324.12384 -0.11336,-12.36495 -0.44588,-3.96321 -1.28273,-1.4776 -1.14468,3.10217 -0.42711,6.80576 0.0368,9.8933"
       id="path3991-4"
       style="fill:none;stroke:#000000;stroke-width:1px;stroke-linecap:butt;stroke-linejoin:miter;stroke-opacity:1" />
  </g>
</svg>
